<svg width="774" height="314" viewBox="0 0 774 314" fill="none" xmlns="http://www.w3.org/2000/svg">
<path d="M550.896 69.3078C533.067 90.7028 491.627 132 402 132H774C767.093 122.878 751.931 102.147 746.534 92.1956C739.788 79.7567 734.005 69.3078 720.031 69.3078C706.057 69.3078 691.119 94.6834 673.29 92.1956C655.461 89.7078 651.124 79.259 626.549 44.9276C601.974 10.5961 568.725 47.9129 550.896 69.3078Z" fill="#F3F6F9"/>
<path d="M60.3382 34C29.2322 34 26.9835 93.2982 0 94H205L190.759 79.9649C185.762 70.9591 171.72 52.386 155.53 74C135.292 101.018 99.6892 78.2105 96.691 66.9825C93.6929 55.7544 91.4442 34 60.3382 34Z" fill="#F3F6F9"/>
<path d="M624 259C592.5 259 598 296 541 296H689.5C658 296 655.5 259 624 259Z" fill="#F3F6F9"/>
<path d="M186.604 211C143.11 211 150.704 262 72 262H277.045C233.551 262 230.099 211 186.604 211Z" fill="#F3F6F9"/>
<g clip-path="url(#clip0)">
<path d="M423.179 268.544C424.266 268 425.3 269.415 426.333 268.598C429.813 266.747 433.185 264.788 436.61 262.828C443.245 258.908 449.444 254.39 455.208 249.273C455.426 249.055 455.698 248.783 455.752 248.511C455.915 246.932 456.948 245.898 458.036 244.863C457.22 257.547 454.991 270.123 453.686 282.752C453.468 284.821 447.595 282.48 446.997 284.059C441.341 284.113 435.468 283.95 429.759 283.787C427.91 283.732 426.007 283.406 424.484 284.821C424.919 283.678 424.593 283.242 423.288 283.297C421.547 283.351 421.493 283.297 421.656 281.555C422.037 277.145 422.853 272.845 423.179 268.544Z" fill="#E97057"/>
<path d="M424.429 284.767C424.973 283.188 426.224 283.242 427.637 283.242C433.565 283.406 439.492 283.46 445.419 283.46C446.018 283.46 446.507 283.678 446.996 283.95C453.087 289.448 459.123 295.001 465.213 300.499C463.31 300.935 461.624 300.39 459.939 300.173C455.316 299.574 450.749 298.812 446.126 298.104C440.906 297.287 435.685 296.416 430.465 295.6C427.746 295.164 425.027 294.729 422.308 294.402C421.112 294.239 421.057 293.858 421.438 292.824C422.471 290.211 423.396 287.489 424.429 284.767Z" fill="#25272D"/>
<path d="M421.547 268.98C425.408 255.86 430.792 243.176 435.142 230.22C441.015 217.427 440.852 203.436 433.565 191.242C429.704 183.457 425.952 175.618 422.146 167.779C420.079 161.791 412.956 153.571 414.533 147.528C420.188 150.903 417.85 150.468 422.635 146.167C435.795 167.942 450.423 157.272 443.843 150.522C440.417 148.072 436.447 146.004 434.707 141.921C432.858 137.62 441.559 141.376 441.45 137.076C440.254 135.007 436.121 136.422 434.109 133.809C434.762 132.013 439.166 130.38 436.284 128.692C433.021 126.406 430.031 123.629 426.605 121.615C426.333 121.234 426.496 121.016 426.877 120.853C427.91 120.799 428.399 119.928 429.052 119.329C432.043 116.825 435.251 114.756 438.786 113.177C439.275 112.96 439.547 112.579 439.601 112.034C440.254 112.633 440.961 112.306 441.613 112.034C447.541 109.911 453.631 108.986 459.939 109.639C476.47 111.109 491.207 122.922 495.938 138.872C495.177 139.253 494.416 139.199 493.709 138.872C482.887 135.116 475.6 152.101 485.824 158.143C486.911 158.688 487.564 159.831 486.313 160.593C485.225 162.172 479.788 164.132 481.473 166.2C485.389 170.827 488.978 175.727 492.839 180.409C496.373 188.52 480.984 215.63 475.709 223.524C462.549 242.632 444.713 259.399 423.233 268.381C422.635 268.653 422.091 268.816 421.547 268.98Z" fill="#3362C1"/>
<path d="M456.893 133.211C456.947 130.653 458.959 128.693 461.515 128.747C464.179 128.747 466.191 130.925 466.137 133.538C466.083 136.042 463.907 138.002 461.243 137.947C458.796 137.947 456.893 135.824 456.893 133.211Z" fill="#FBC573"/>
<path d="M493.981 182.859C490.011 177.088 485.335 171.753 480.984 166.255C479.081 164.023 486.531 161.573 487.02 159.287C491.969 156.13 495.939 150.849 501.376 148.835C506.869 148.835 512.361 148.835 517.799 148.835C519.213 148.835 519.376 149.053 519.213 150.414C517.146 154.388 517.364 163.315 511.98 163.642C503.443 164.404 494.797 165.003 486.368 166.31C495.449 165.874 504.53 164.622 513.612 163.805C517.038 163.207 518.017 153.244 519.865 150.141C521.932 147.365 527.261 149.434 530.415 148.78C516.385 145.623 523.019 146.331 524.379 135.715C522.802 138.274 522.258 146.44 518.832 145.677C517.418 144.915 506.978 143.935 509.86 141.649C512.198 140.56 524.868 127.931 525.466 130.925C532.373 139.635 539.279 148.345 546.131 157.055C547.218 158.416 547.273 158.47 545.913 159.505C531.938 170.61 517.908 181.607 503.987 192.767C502.029 195.543 496.374 183.893 493.981 182.859Z" fill="#E97057"/>
<path d="M518.941 150.305C519.159 149.542 519.05 149.216 518.071 149.216C512.416 149.27 506.76 149.216 501.105 149.27C499.637 149.27 498.766 150.522 497.733 151.339C494.525 153.789 491.371 156.347 488.217 158.906C487.836 159.232 487.456 159.396 486.966 159.341C482.725 157.49 480.278 153.408 480.386 148.889C480.495 144.643 483.16 140.451 487.619 138.873C489.74 138.11 491.697 137.947 493.818 138.764C494.471 139.036 495.232 138.981 495.939 139.09C497.244 139.907 498.821 139.961 500.235 140.451C502.41 141.159 504.748 141.594 506.923 142.248C508.065 142.629 508.935 142.248 509.914 141.758C509.316 142.411 509.316 142.901 510.349 143.119C513.177 143.826 516.059 144.643 518.887 145.405C519.866 145.677 520.627 145.351 521.062 144.371C521.497 144.643 521.116 145.514 521.878 145.46C522.639 146.929 524.162 146.603 525.358 147.038C527.424 147.8 529.708 147.909 531.829 148.889C531.394 149.379 530.905 149.216 530.524 149.216C527.751 149.216 525.032 149.27 522.258 149.216C521.279 149.216 520.627 149.434 520.192 150.25C519.757 149.488 519.376 150.468 518.941 150.305Z" fill="#FDC372"/>
<path d="M518.942 150.305C519.051 150.196 519.214 150.087 519.323 149.923C519.486 149.651 519.486 149.107 519.975 149.27C520.465 149.434 520.193 149.869 520.247 150.196C518.888 154.224 517.474 158.253 516.114 162.335C515.734 163.533 515.027 164.077 513.722 164.186C506 164.894 498.278 165.765 490.556 166.527C489.197 166.69 487.837 166.745 486.532 166.854C486.097 166.908 485.499 167.017 485.39 166.418C485.281 165.711 485.988 165.711 486.423 165.656C488.816 165.384 491.154 165.166 493.547 164.894C498.767 164.35 503.933 163.86 509.154 163.315C510.459 163.206 511.764 163.043 513.069 162.989C514.157 162.934 514.755 162.499 515.136 161.41C516.332 157.763 517.637 154.006 518.942 150.305Z" fill="#FBE7E2"/>
<path d="M503.062 185.798C503.498 183.947 503.933 182.042 504.368 180.137C505.183 176.544 506.053 172.951 506.869 169.358C506.978 168.814 506.978 168.106 507.739 168.324C508.392 168.487 508.12 169.086 508.011 169.576C507.032 173.767 506.053 178.014 505.075 182.205C504.803 183.457 504.476 184.764 504.15 186.016C504.041 186.397 503.987 186.724 503.498 186.724C503.063 186.724 503.117 186.288 503.062 185.798Z" fill="#FAE1DC"/>
<path d="M531.122 156.783C533.95 156.783 536.723 156.783 539.551 156.783C539.986 156.783 540.584 156.619 540.584 157.327C540.584 158.035 539.986 157.871 539.551 157.871C533.95 157.871 528.294 157.871 522.693 157.871C522.258 157.871 521.66 157.926 521.66 157.273C521.66 156.565 522.258 156.728 522.693 156.728C525.467 156.783 528.294 156.783 531.122 156.783Z" fill="#FCE7E1"/>
<path d="M521.878 145.405C521.606 145.568 521.497 146.113 521.008 145.841C520.682 145.623 520.899 145.296 520.953 144.97C521.008 144.752 521.008 144.534 521.008 144.316C521.987 141.486 522.966 138.655 523.944 135.824C524.053 135.497 524.216 134.953 524.76 135.225C525.249 135.443 525.086 135.878 524.923 136.314C523.944 139.308 522.911 142.357 521.878 145.405Z" fill="#FAE3DD"/>
<path d="M398.326 211.164C392.127 234.028 386.091 256.947 379.729 279.811C331.114 284.275 280.976 258.254 257.43 215.302C259.333 215.302 262.106 217.588 263.683 218.84C268.741 222.542 274.178 225.591 279.399 229.02C285.326 231.307 290.166 236.152 296.311 238.22C299.574 239.853 303.326 240.126 306.534 241.541C341.337 248.346 373.747 216.282 367.113 181.278C365.318 170.445 359.336 160.482 351.941 152.534C349.276 150.139 360.478 150.792 361.185 151.446C364.72 165.382 374.78 175.997 382.556 187.647C386.2 192.873 389.789 198.099 393.486 203.271C394.792 205.938 398.381 208.116 398.326 211.164Z" fill="#3362C1"/>
<path d="M215.885 167.668C220.453 179.699 227.957 190.369 236.386 199.732C227.25 199.351 218.114 199.188 209.033 198.752C208.163 198.752 207.891 198.371 208.108 197.609C210.719 187.647 212.894 177.521 215.885 167.668Z" fill="#3362C1"/>
<path d="M215.885 167.668C208.816 147.799 208.435 125.098 216.157 105.446C216.81 107.133 215.396 108.331 215.178 110.291C218.659 105.935 229.698 98.1508 229.97 93.3058C229.806 90.3117 227.251 87.6442 224.314 89.1141C228.556 83.1258 237.8 80.2406 244.434 83.6702C243.184 84.4868 241.824 82.9081 240.519 82.9625C240.247 83.4525 240.628 83.6158 240.845 83.7791C244.435 86.501 247.371 93.2514 252.7 91.4005C255.909 90.1484 251.069 89.2774 250.96 87.6987C255.31 89.8218 259.008 93.3602 263.358 95.7011C264.609 96.8987 268.905 97.8242 269.177 99.1851C267.6 99.5662 266.404 97.062 264.935 98.8585C261.075 102.724 257.268 106.534 253.407 110.399C250.634 113.23 251.504 117.966 255.365 119.218C259.117 120.307 261.292 116.551 263.685 114.373C267.274 110.617 271.298 107.188 274.561 103.214C291.473 112.523 307.623 124.009 324.318 134.08C334.813 141.211 346.994 146.492 355.042 156.618C355.477 157.216 355.966 157.706 356.782 157.761C361.459 161.463 356.836 162.551 355.422 166.144C354.607 168.757 356.728 172.024 359.501 172.241C361.404 172.895 363.036 170.88 364.721 171.479C373.531 191.894 366.353 217.044 349.278 230.871C348.353 231.96 347.211 231.47 346.504 230.436C341.828 227.17 336.716 216.445 330.245 219.875C323.393 225.645 334.432 231.579 337.749 235.934C338.184 236.37 338.946 236.751 338.456 237.622C331.659 241.215 323.828 242.848 316.161 242.739C313.115 242.358 308.167 243.719 306.209 240.942C305.992 239.581 305.176 238.547 304.252 237.622C297.944 231.361 291.744 225.046 285.328 218.949C280.869 215.139 274.724 221.508 278.422 225.917C278.911 226.952 281.467 228.149 280.216 229.347C274.832 227.061 269.993 222.978 264.772 220.038C264.337 219.766 263.793 219.494 263.685 218.895C266.621 213.995 283.098 202.455 281.793 197.555C281.14 192.928 275.431 191.785 272.712 195.323C267.383 200.658 262.108 205.939 256.779 211.274C254.06 213.397 257.812 213.233 257.866 215.302C250.307 211.001 243.184 205.231 236.495 199.678C227.305 190.641 219.855 179.863 215.885 167.668Z" fill="#FDC672"/>
<path d="M224.313 89.1146C226.162 87.6992 228.174 88.1891 229.479 90.4755C230.73 92.653 230.676 95.1028 228.881 97.0081C226.108 99.9478 223.171 102.779 220.343 105.664C218.821 107.188 217.407 108.712 215.884 110.182C215.667 110.4 215.395 110.89 215.014 110.672C214.634 110.4 214.797 109.91 214.96 109.529C215.449 108.168 216.048 106.861 216.211 105.392C217.135 102.125 218.712 99.1312 220.235 96.0827C221.377 93.6874 222.627 91.2921 224.313 89.1146Z" fill="#FEA162"/>
<path d="M250.96 87.6983C251.775 88.5149 252.754 89.0593 253.733 89.6581C254.603 90.2025 254.603 90.8013 253.787 91.2913C251.775 92.5433 249.328 92.5433 247.534 90.9102C244.978 88.5694 242.64 86.0652 240.247 83.6155C240.03 83.3977 239.54 83.18 239.758 82.7445C239.975 82.3089 240.519 82.5267 240.9 82.5811C242.15 82.7989 243.184 83.6699 244.489 83.6155C246.664 84.8676 248.893 86.1196 250.96 87.6983Z" fill="#FEA162"/>
<path d="M256.343 192.819C256.561 195.051 255.364 196.575 253.679 197.501C251.34 198.753 249.056 198.317 247.371 196.63C240.084 189.39 232.851 182.095 225.565 174.8C223.988 173.221 223.335 170.989 224.423 168.594C225.238 166.852 227.631 165.382 229.643 165.546C231.003 165.655 232.253 166.253 233.232 167.233C240.41 174.419 247.588 181.55 254.712 188.791C255.799 189.88 256.561 191.186 256.343 192.819Z" fill="#FEA062"/>
<path d="M281.685 166.036C283.153 165.981 284.349 166.58 285.328 167.505C292.669 174.8 300.011 182.149 307.352 189.499C309.038 191.186 309.364 193.418 308.439 195.596C307.624 197.392 305.34 198.862 303.273 198.699C301.914 198.59 300.663 198.045 299.684 197.065C295.225 192.602 290.766 188.138 286.307 183.728C283.697 181.115 281.087 178.448 278.422 175.889C275.159 172.732 275.812 167.995 280.325 166.253C280.76 166.036 281.25 166.09 281.685 166.036Z" fill="#FEA062"/>
<path d="M302.511 143.77C300.934 143.987 299.683 143.225 298.595 142.082C292.451 135.931 286.306 129.779 280.161 123.627C277.986 121.45 277.496 119.272 278.747 116.55C279.454 115.026 282.554 113.284 284.511 114.046C285.925 114.591 287.121 115.353 288.155 116.442C294.136 122.43 300.118 128.418 306.1 134.406C308.221 136.529 308.764 139.306 306.915 141.81C305.882 143.28 304.414 143.879 302.511 143.77Z" fill="#FEA062"/>
<path d="M309.364 170.989C306.319 170.989 304.307 168.866 304.144 166.035C304.035 164.075 304.742 162.605 306.156 161.244C312.301 155.202 318.337 149.105 324.427 143.008C326.167 141.266 328.234 140.34 330.626 141.538C334.161 143.28 335.357 147.09 332.475 150.085C326.059 156.726 319.479 163.204 312.899 169.737C311.92 170.662 310.669 171.152 309.364 170.989Z" fill="#FEA062"/>
<path d="M226.543 119.273C226.054 116.932 227.522 115.462 229.153 114.482C231.328 113.23 233.558 113.665 235.352 115.462C239.159 119.218 242.911 122.974 246.663 126.731C249.273 129.344 251.829 132.011 254.548 134.57C257.702 137.618 256.288 141.973 252.971 143.443C251.285 144.205 248.403 143.661 246.935 142.191C244.542 139.796 242.204 137.346 239.811 134.951C235.951 131.086 232.09 127.221 228.229 123.355C227.032 122.321 226.054 121.069 226.543 119.273Z" fill="#FEA062"/>
<path d="M359.61 191.35C359.61 194.289 357.87 196.576 355.151 197.011C352.867 197.392 351.235 196.031 349.767 194.507C344.819 189.553 339.924 184.654 334.976 179.7C333.671 178.393 332.311 177.141 331.115 175.726C329.755 174.093 329.212 172.133 330.299 170.064C331.278 168.213 332.746 167.125 335.03 167.07C336.934 167.016 338.347 167.778 339.598 169.03C345.471 174.909 351.398 180.789 357.217 186.722C358.576 188.029 360.099 189.39 359.61 191.35Z" fill="#FEA062"/>
<path d="M255.256 165.763C255.038 163.749 256.397 162.497 257.594 161.299C261.781 157.053 266.023 152.861 270.21 148.669C272.385 146.492 274.451 144.096 276.898 142.137C278.421 140.885 281.412 141.048 283.098 142.409C284.838 143.824 285.762 146.111 284.838 148.452C284.457 149.377 283.913 150.085 283.261 150.738C277.007 156.998 270.645 163.204 264.5 169.574C261.89 172.296 256.669 171.533 255.419 167.559C255.256 166.906 255.31 166.362 255.256 165.763Z" fill="#FEA062"/>
<path d="M329.05 194.343C331.17 194.343 333.4 195.649 333.944 197.5C334.542 199.569 334.542 201.638 332.802 203.38C326.385 209.749 320.077 216.118 313.66 222.487C311.594 224.502 308.984 224.937 306.808 223.358C304.416 221.671 303.872 219.82 304.796 216.935C305.34 215.193 306.972 213.941 308.277 212.634C310.289 210.62 312.301 208.606 314.313 206.591C316.325 204.632 318.337 202.672 320.295 200.712C322.035 199.024 323.612 197.119 325.515 195.595C326.983 194.506 327.201 194.343 329.05 194.343Z" fill="#FEA062"/>
<path d="M263.685 218.84C261.564 217.861 259.661 216.5 257.703 215.193C257.159 214.594 256.616 214.05 255.854 213.669C254.984 213.233 254.767 212.689 255.528 211.872C261.401 206.047 267.165 200.059 273.147 194.343C276.192 191.404 280.053 192.765 281.684 196.085C282.609 197.936 282.446 200.223 280.76 201.965C275.322 207.408 269.884 212.852 264.446 218.296C264.174 218.459 263.902 218.677 263.685 218.84Z" fill="#FEA062"/>
<path d="M306.591 241.541C299.957 240.453 293.866 237.948 288.157 234.464C285.546 232.886 282.991 231.253 280.38 229.619C280.217 229.51 280.163 229.347 280.054 229.184C280.163 227.877 279.021 227.224 278.314 226.625C276.248 224.883 276.628 220.419 278.532 218.841C280.272 217.371 283.752 217.099 285.492 218.732C287.45 220.583 289.299 222.542 291.202 224.393C294.682 227.768 298.162 231.198 301.588 234.628C302.295 235.335 303.002 236.043 303.709 236.751C305.123 238.003 306.374 239.473 306.591 241.541Z" fill="#FEA062"/>
<path d="M269.123 99.1307C271.189 99.8384 272.222 101.853 274.017 102.887C274.18 102.996 274.398 103.105 274.561 103.214C274.615 103.758 274.343 104.139 273.963 104.52C269.395 109.038 264.936 113.666 260.313 118.13C256.942 121.396 252.755 119.491 251.613 116.061C250.906 113.992 251.395 111.815 253.135 110.127C257.051 106.262 260.966 102.343 264.827 98.423C265.588 97.6609 266.349 97.552 267.22 98.1508C267.818 98.5319 268.361 99.0763 269.123 99.1307Z" fill="#FEA062"/>
<path d="M225.293 141.32C227.685 141.32 229.262 142.409 230.241 144.369C231.329 146.546 230.894 148.615 229.317 150.248C224.966 154.767 220.453 159.176 216.048 163.64C215.45 164.239 215.069 164.021 214.852 163.368C213.764 159.884 212.948 156.345 212.133 152.807C212.078 152.426 212.187 152.208 212.459 151.936C215.831 148.724 218.876 145.185 222.41 142.191C223.335 141.429 224.368 141.32 225.293 141.32Z" fill="#FEA062"/>
<path d="M347.646 231.361C344.927 233.865 341.719 235.607 338.402 237.186C335.357 234.138 332.311 231.089 329.321 228.04C327.363 226.081 326.982 223.522 328.396 221.018C329.919 218.35 334.323 217.969 336.118 219.711C340.088 223.522 344.003 227.333 347.646 231.361Z" fill="#FEA062"/>
<path d="M358.576 160.646C360.153 161.789 360.86 163.585 361.73 165.218C362.763 167.233 363.96 169.192 364.34 171.479C363.579 171.315 363.09 171.914 362.492 172.132C359.338 173.275 356.891 172.459 355.585 169.954C354.443 167.831 354.335 166.198 356.292 163.803C357.054 162.823 358.522 162.224 358.576 160.646Z" fill="#FEA062"/>
<path d="M361.24 151.392C358.031 151.501 354.768 151.228 351.506 151.555C346.829 148.398 342.533 144.424 337.367 141.811C328.83 136.585 320.455 130.977 311.863 125.751C311.428 125.479 310.776 125.425 310.939 124.608C314.637 124.771 299.084 101.907 298.105 98.7499C295.658 92.8706 286.305 96.3002 288.806 102.506C290.819 106.752 293.537 110.835 295.713 114.918C295.06 115.354 294.571 114.918 294.136 114.646C287.447 110.291 280.65 106.045 273.852 101.853C273.145 101.363 271.786 100.819 272.221 99.7298C274.015 95.5381 275.81 91.1286 278.583 87.4812C278.801 87.7534 278.801 88.2434 279.453 87.8623C283.912 84.3782 300.335 79.0433 298.867 73.2184C298.649 71.0953 295.55 67.6657 293.537 69.8432C291.58 71.3675 290.112 74.2527 287.773 74.9604C293.102 66.8491 304.794 60.4254 313.603 67.0669C312.516 67.6113 311.7 66.3047 310.667 66.1959C311.374 69.6799 314.582 72.9462 315.942 76.4303C317.627 79.8054 321.869 80.2954 324.207 77.9545C327.524 81.7652 331.44 85.2493 334.485 89.1144C333.289 88.6789 332.364 89.1688 331.331 89.7132C326.437 93.2517 316.975 95.9736 314.038 100.927C312.461 105.065 316.975 109.148 320.945 107.079C324.207 105.337 327.416 103.432 330.624 101.635C333.234 100.22 335.79 98.6411 338.4 97.2257C340.249 96.2458 340.249 96.1914 338.89 94.7215C338.509 94.286 337.802 93.9594 338.237 93.1428C346.231 101.091 353.355 110.019 361.457 117.803C361.294 119.709 361.185 121.941 360.478 123.683C360.315 126.568 360.37 129.616 359.935 132.611C359.01 132.992 358.793 132.229 358.466 131.631C354.768 125.261 351.288 118.729 347.59 112.36C344.436 106.154 334.974 111.87 338.944 117.531C343.294 125.153 347.59 132.828 351.886 140.45C353.3 142.899 355.53 143.825 358.194 143.063C359.445 142.682 359.608 142.845 359.935 144.533C360.261 146.873 361.022 149.105 361.24 151.392Z" fill="#FDC673"/>
<path d="M338.454 93.1434C338.509 94.0144 339.324 94.3954 339.814 94.9398C341.01 96.2463 341.065 96.2463 339.488 97.1718C337.802 98.1517 336.062 99.1316 334.376 100.111C329.917 102.616 325.458 105.12 320.944 107.569C319.694 108.277 316.811 108.114 315.506 106.807C313.712 105.12 313.277 103.16 313.821 101.091C314.364 98.9682 315.996 97.9884 317.682 97.0629C322.521 94.341 327.415 91.6735 332.255 88.8972C333.234 88.2983 333.941 88.2439 334.702 89.0605C335.137 89.5504 335.627 89.9859 336.062 90.4759C336.714 91.4558 337.693 92.1635 338.454 93.1434Z" fill="#FEA062"/>
<path d="M287.882 74.9607C289.731 73.4908 291.362 71.8032 292.885 70.0068C294.897 67.7204 296.474 68.6458 298.106 70.5512C300.553 73.382 299.356 77.1382 296.093 78.9347C290.547 82.0376 284.946 85.1406 279.399 88.298C279.127 88.4613 278.855 88.5702 278.475 88.7335C278.529 88.2436 278.583 87.8625 278.638 87.4815C280.922 83.3442 283.858 79.6424 286.849 75.995C287.175 75.6139 287.556 75.2873 287.882 74.9607Z" fill="#FEA062"/>
<path d="M324.316 77.9004C323.664 79.2614 322.087 79.969 320.401 79.7513C318.389 79.5335 316.921 78.6081 315.942 76.7572C314.147 73.4365 312.244 70.1702 310.395 66.8494C310.232 66.5228 309.743 66.1417 310.178 65.7607C310.558 65.434 310.993 65.6518 311.428 65.924C312.135 66.3595 312.897 66.8494 313.767 67.0127C314.256 67.0672 314.528 67.4482 314.854 67.7204C318.171 70.9867 321.325 74.4163 324.316 77.9004Z" fill="#FEA162"/>
<path d="M360.151 144.587C359.879 143.117 359.227 143.281 357.922 143.662C355.746 144.261 353.354 143.39 351.994 140.94C348.568 134.897 345.197 128.8 341.771 122.703C340.52 120.526 339.106 118.457 338.182 116.062C337.529 114.374 338.019 112.904 338.998 111.543C340.194 109.856 341.88 109.039 344 109.311C346.828 109.638 347.97 111.87 349.166 113.938C351.668 118.294 354.061 122.757 356.508 127.167C357.378 128.746 358.248 130.324 359.118 131.849C359.335 132.284 359.662 132.611 360.151 132.611C359.934 136.585 359.716 140.613 360.151 144.587Z" fill="#FEA062"/>
<path d="M311.047 124.717C306.316 121.778 301.64 118.838 296.909 115.898C296.474 115.626 296.148 115.299 295.767 114.973C294.244 113.612 293.592 111.706 292.613 110.019C291.362 107.787 290.057 105.555 288.861 103.323C287.447 100.547 288.317 97.2803 290.764 96.0282C293.864 94.4495 296.691 95.4294 298.268 98.2602C302.564 105.827 306.751 113.503 311.102 121.015C311.591 121.832 311.809 122.757 312.189 123.628C312.353 124.064 312.516 124.554 312.189 124.88C311.809 125.207 311.428 124.663 311.047 124.717Z" fill="#FEA062"/>
<path d="M381.468 124.283C391.691 132.938 404.307 139.144 414.639 147.745C413.987 151.175 415.89 153.951 417.249 156.837C420.567 163.696 423.992 170.555 427.31 177.469C447.647 214.541 439.654 216.501 427.201 253.573C422.742 266.421 417.358 278.887 413.117 291.844C412.573 293.096 412.627 294.838 411.431 295.6C408.494 296.416 404.851 295.545 401.751 295.818C401.208 295.818 400.773 295.763 400.827 296.525C393.758 296.09 386.58 296.09 379.51 296.525C378.803 294.402 374.453 297.886 376.139 293.422C379.891 279.758 382.827 266.04 386.797 252.376C390.277 239.202 393.921 226.082 397.401 212.963C398.217 208.716 400.338 213.616 401.86 214.65C397.238 208.063 399.739 210.513 401.969 203.871C400.392 205.613 399.957 208.281 398.162 209.751C392.888 204.361 389.244 197.175 384.513 191.133C377.281 179.973 367.873 170.011 362.87 157.599C358.139 147.038 359.988 135.715 360.151 124.609C360.151 124.228 360.043 123.684 360.749 123.738C361.239 124.119 361.783 124.391 362.49 124.391C368.798 124.337 375.323 124.228 381.468 124.283Z" fill="#E97057"/>
<path d="M379.511 296.47C379.892 295.926 380.435 295.763 381.142 295.763C387.07 295.763 392.997 295.817 398.87 295.763C399.686 295.763 400.229 296.144 400.828 296.525C407.081 302.241 413.389 307.957 419.751 313.836C418.936 314.163 418.283 313.999 417.631 313.891C411.921 313.02 406.211 312.203 400.501 311.278C394.139 310.298 387.722 309.263 381.36 308.229C379.728 307.957 378.151 307.739 376.52 307.521C375.867 307.467 375.487 307.304 375.759 306.541C377.064 303.166 378.315 299.791 379.511 296.47Z" fill="#25272D"/>
<path d="M434.109 133.863C434.925 134.244 435.74 134.571 436.556 135.006C437.861 135.769 439.384 135.496 440.743 135.932C442.103 136.367 442.375 137.293 441.505 138.382C440.689 139.362 439.71 140.015 438.351 139.96C437.916 139.96 437.426 139.906 436.991 139.96C436.23 140.015 435.305 139.634 434.87 140.45C434.435 141.321 435.142 142.083 435.577 142.791C437.372 145.622 439.873 147.636 442.755 149.215C445.257 150.576 446.181 152.481 445.855 154.985C445.637 156.673 444.55 157.762 443.136 158.469C439.329 160.429 435.795 159.721 432.369 157.435C428.073 154.604 425.028 150.739 422.689 146.221C423.505 144.697 424.865 143.717 425.952 142.519C428.617 139.579 431.173 136.531 434.109 133.863Z" fill="#E97057"/>
<path d="M361.459 117.641C362.057 115.844 362.111 113.993 362.329 112.197C363.036 106.045 363.852 99.8936 364.178 93.6877C364.178 93.2522 364.069 92.5989 364.558 92.49C365.157 92.3812 364.994 93.1433 365.157 93.5244C367.495 100.819 369.725 108.059 372.063 115.354C373.15 118.675 375.543 121.016 378.153 123.139C378.697 123.574 379.241 123.955 379.785 124.336C379.458 124.935 378.915 124.717 378.48 124.717C373.042 124.717 367.604 124.717 362.22 124.717C361.405 124.717 360.752 124.663 360.752 123.629C360.752 123.52 360.752 123.411 360.806 123.302C361.024 122.159 361.133 121.016 361.296 119.872C361.296 119.165 361.405 118.403 361.459 117.641Z" fill="#25272D"/>
<path d="M410.508 59.936C420.894 60.7526 427.855 87.5906 430.465 96.5185C431.607 101.581 435.033 105.12 437.643 109.257C438.187 110.564 441.069 112.687 438.785 113.612C434.87 115.463 431.335 117.913 428.127 120.744C427.746 121.07 427.311 121.288 426.767 121.179C424.32 119.764 422.254 117.858 419.97 116.225C418.23 114.265 412.411 112.36 413.499 109.312C420.514 90.5303 421.764 97.2262 413.335 78.1728C419.97 97.1718 421.057 89.2238 413.281 108.822C412.302 112.632 405.342 104.63 403.384 103.868C396.206 100.003 396.587 89.2782 392.834 82.6912C393.976 88.2983 396.75 93.9055 398.381 99.5126C398.762 100.71 399.523 101.527 400.502 102.235C412.357 111.38 424.592 119.818 436.61 128.583C439.492 130.488 435.359 132.393 434.326 134.135C430.628 137.837 427.202 141.811 423.559 145.567C419.48 149.705 420.024 152.1 414.477 147.854C404.254 139.525 376.358 125.262 372.497 114.483C370.267 104.467 363.307 92.98 365.373 82.909C365.808 80.9492 365.591 80.6225 363.633 80.3503C353.953 79.5882 352.594 68.9727 356.129 61.6236C357.216 59.5005 351.452 61.9502 350.092 61.2425C337.531 59.6094 340.141 42.0258 345.47 34.2956C346.503 32.7169 347.809 31.4103 349.44 30.4304C350.582 29.7772 351.18 28.9062 351.398 27.7085C352.159 23.4079 354.008 19.6517 356.618 16.2221C365.427 4.13676 378.642 9.09064 390.387 3.75569C409.855 -7.4586 440.362 8.92733 427.855 32.608C427.365 33.6423 424.266 37.9429 424.048 34.8399C423.776 32.1725 423.831 32.2269 421.057 32.3902C417.631 32.608 414.314 31.9547 411.052 30.9748C409.855 30.5938 409.42 30.9748 409.148 32.0636C404.907 43.169 405.287 30.1583 400.393 28.9606C396.369 27.2186 391.801 31.7914 393.596 35.8743C394.629 38.0518 395.118 40.6104 396.804 42.4069C403.547 48.8306 401.535 59.5005 397.022 66.6319C394.901 69.4082 404.961 67.7751 406.049 61.4058C406.103 58.6295 408.713 59.6638 410.508 59.936Z" fill="#25272D"/>
<path d="M407.136 59.4465C406.429 60.3175 406.429 61.4607 406.049 62.4951C404.743 66.0336 401.318 68.5922 396.913 68.2655C395.716 68.1567 395.771 67.83 396.315 66.959C399.36 62.4406 400.882 57.4867 400.665 52.0429C400.502 48.5044 399.414 45.347 396.695 42.8973C395.118 41.5363 394.738 39.5221 393.922 37.7257C393.487 36.7458 392.889 35.8203 392.834 34.7315C392.562 31.5741 394.466 28.9611 397.402 28.3078C400.23 27.709 403.112 29.451 404.2 32.3907C404.58 33.4795 405.015 34.5682 405.505 35.6026C405.831 36.3647 406.266 36.528 406.864 35.7114C407.897 34.296 408.659 32.7173 409.039 30.9753C409.203 30.1587 409.529 29.9954 410.236 30.2676C414.314 31.6286 418.447 32.3907 422.743 31.7919C423.939 31.6286 424.374 32.0096 424.374 33.2073C424.374 34.0783 423.885 35.1126 424.755 35.8748C424.972 35.8748 424.972 35.9292 424.864 36.0925C424.102 36.528 424.157 37.2901 424.102 37.9978C423.776 40.6653 423.776 43.3872 423.341 46.1091C422.634 50.3553 418.556 54.7648 414.314 55.7992C412.628 56.2347 410.943 56.2891 409.203 56.2347C408.169 56.1802 407.517 56.5069 407.517 57.5956C407.462 58.1944 406.755 58.7388 407.136 59.4465Z" fill="#E97057"/>
<path d="M418.61 45.2915C418.338 45.237 418.012 45.237 417.74 45.1282C417.414 45.0193 417.033 44.856 417.087 44.4205C417.142 44.0394 417.468 43.9305 417.794 43.9305C419.317 44.0938 419.371 43.4406 418.936 42.1885C418.392 40.6098 418.12 38.9766 417.74 37.3979C417.631 36.9624 417.468 36.4725 418.12 36.3636C418.61 36.2547 418.773 36.6902 418.882 37.1257C419.426 39.3033 419.915 41.4808 420.568 43.6039C420.948 44.856 420.513 45.1282 419.426 45.1826C419.208 45.1826 418.936 45.237 418.61 45.2915Z" fill="#543937"/>
<path d="M400.882 38.3778C400.882 38.7044 400.719 38.9222 400.447 38.9766C400.066 39.1399 399.849 38.8677 399.74 38.5411C399.251 37.4523 398.707 36.3636 398.217 35.2204C397.945 34.5671 397.728 33.8594 397.456 33.2062C397.293 32.8251 396.912 32.4985 397.456 32.1718C398 31.8452 398.272 32.3351 398.489 32.7706C398.979 33.805 399.414 34.8937 399.903 35.9825C400.175 36.8535 400.556 37.6157 400.882 38.3778Z" fill="#553A37"/>
<path d="M414.206 36.3096C415.076 36.4184 415.674 36.7995 415.674 37.8883C415.674 38.9771 415.076 39.5214 414.043 39.467C413.064 39.467 412.629 38.7593 412.629 37.8338C412.629 36.854 413.227 36.364 414.206 36.3096Z" fill="#4B3535"/>
<path d="M423.232 37.9974C423.177 38.9773 422.579 39.4128 421.6 39.3584C420.622 39.3584 420.023 38.814 420.023 37.8885C420.023 37.0175 420.622 36.3643 421.546 36.3643C422.579 36.4187 423.232 36.9086 423.232 37.9974Z" fill="#3B2F31"/>
<path d="M412.738 48.0685C411.976 47.9052 411.324 47.4697 410.834 46.8164C410.617 46.5442 410.563 46.2176 410.834 45.9454C411.106 45.7276 411.433 45.7821 411.705 45.9454C412.248 46.3809 412.683 46.8164 413.336 47.0341C413.608 47.143 413.717 47.4152 413.608 47.6874C413.499 48.1229 413.118 48.014 412.738 48.0685Z" fill="#5B3C38"/>
</g>
<defs>
<clipPath id="clip0">
<rect width="339" height="314" fill="white" transform="translate(208)"/>
</clipPath>
</defs>
</svg>
