<svg width="142" height="45" viewBox="0 0 142 45" fill="none" xmlns="http://www.w3.org/2000/svg">
<path fill-rule="evenodd" clip-rule="evenodd" d="M6.25056 0H2.08352V3.54839H0V7.41935H1.92325V11.9355C1.92325 15.4839 4.80813 17.9032 8.33409 17.9032H10.8984V14.1935H8.49436C7.21219 14.1935 6.25056 13.2258 6.25056 11.9355V7.41935H8.97517C10.0971 7.41935 10.8984 6.45161 10.8984 5.32258V3.54839H6.09029V0H6.25056ZM30.6117 12.0968C30.6117 13.3871 29.6501 14.3548 28.3679 14.3548C27.0858 14.3548 26.1242 13.3871 26.1242 12.0968V5.64516C26.1242 4.51613 25.1625 3.70968 24.0406 3.70968H21.7968V11.7742C21.7968 15.3226 23.7201 18.3871 28.2077 18.3871C32.6953 18.3871 34.6185 15.4839 34.6185 11.7742V3.70968H30.2912V12.0968H30.6117ZM49.5237 11.2903C49.5237 6.93548 47.1196 3.3871 42.6321 3.3871C38.7856 3.3871 35.7404 6.45161 35.7404 10.8065C35.7404 15.4839 38.465 18.0645 42.6321 18.2258C45.3567 18.2258 47.6005 16.7742 48.8826 14.5161L45.0361 13.5484C44.5553 14.0323 43.754 14.5161 42.6321 14.5161C41.1896 14.5161 39.9074 13.3871 39.9074 12.0968H49.5237C49.5237 11.9355 49.5237 11.4516 49.5237 11.2903ZM39.9074 9.19355C39.9074 7.90323 41.1896 6.77419 42.6321 6.77419C44.2348 6.77419 45.3567 7.90323 45.3567 9.19355H39.9074ZM17.9503 3.54839C14.7449 3.54839 12.0203 6.12903 12.0203 9.51613V17.9032H16.3476V9.67742C16.3476 8.3871 17.3093 7.41935 18.5914 7.41935H21.1558V3.54839H17.9503Z" fill="#FF0000"/>
<path fill-rule="evenodd" clip-rule="evenodd" d="M125.492 27.0968C124.69 27.0968 123.729 27.5806 122.286 29.0323V28.5484C122.286 27.7419 121.645 27.2581 120.844 27.2581H119.241V38.3871C119.241 39.1935 119.882 39.8387 120.684 39.8387C121.485 39.8387 121.966 39.3548 122.126 38.7097V32.2581C123.569 30.8065 124.53 30.1613 125.652 30C126.293 29.8387 126.774 29.3548 126.774 28.7097C126.934 27.7419 126.293 27.0968 125.492 27.0968Z" fill="#00FF00"/>
<path fill-rule="evenodd" clip-rule="evenodd" d="M141.679 37.7419L137.833 32.7419L139.275 31.4516L141.038 29.8387C141.519 29.3548 141.519 28.5484 141.038 28.0645L140.077 27.0967L137.512 29.5161L132.384 33.8709V24.3548V24.1935C132.384 23.8709 132.063 23.3871 131.903 23.2258C131.582 23.0645 131.262 22.9032 130.941 22.9032H130.781H129.338V38.3871C129.338 39.1935 129.979 39.8387 130.781 39.8387C131.582 39.8387 132.223 39.1935 132.223 38.3871V37.5806L135.589 34.5161L139.275 39.3548C139.596 39.8387 139.916 40 140.557 40C141.359 40 142 39.5161 142 38.7097C142 38.3871 142 38.0645 141.679 37.7419Z" fill="#00FF00"/>
<path fill-rule="evenodd" clip-rule="evenodd" d="M95.6815 27.258H88.9501V37.258H75.6477H75.3271C74.8463 37.4193 74.686 37.9032 74.686 38.5483V39.8386H78.0517H88.9501V43.5483C88.9501 44.3548 89.5912 44.9999 90.3926 44.9999C91.1939 44.9999 91.835 44.3548 91.835 43.5483V41.2903V39.8386H94.0788H95.361C99.0472 39.8386 102.413 37.258 102.413 33.5483C102.413 30.1612 99.6883 27.258 95.6815 27.258ZM99.3678 33.5483C99.3678 35.3225 97.6048 37.258 95.361 37.258H91.835V29.9999H95.361C97.765 29.8386 99.3678 31.6128 99.3678 33.5483Z" fill="#00FF00"/>
<path fill-rule="evenodd" clip-rule="evenodd" d="M110.427 26.9355C109.465 26.9355 108.664 27.0967 108.023 27.0967L107.381 27.4193C107.221 27.4193 107.061 27.5806 106.74 27.5806L104.977 28.0645L105.458 29.3548C105.618 30 106.26 30.4838 106.901 30.1613L108.824 29.5161C109.305 29.5161 109.625 29.3548 110.106 29.3548C112.029 29.3548 113.311 30.4838 113.311 32.0967V32.258C111.709 31.9355 110.907 31.9355 109.786 31.9355C106.58 31.9355 104.497 33.2258 104.497 35.9677C104.497 38.5484 106.74 39.8387 109.144 39.8387C110.587 39.8387 111.709 39.6774 113.472 38.8709V39.0322C113.632 39.5161 114.113 39.8387 114.914 39.8387C115.716 39.8387 116.357 39.1935 116.357 38.3871V32.258C116.357 30.6451 115.876 29.1935 114.914 28.3871C113.792 27.5806 112.35 26.9355 110.427 26.9355ZM113.311 36.7742C111.869 37.5806 110.907 37.9032 109.786 37.9032C108.343 37.9032 107.221 37.258 107.221 35.9677C107.221 34.6774 108.343 33.8709 110.266 33.8709C111.068 33.8709 111.709 34.0322 113.151 34.1935V36.7742H113.311Z" fill="#00FF00"/>
<path fill-rule="evenodd" clip-rule="evenodd" d="M71.9616 23.2258H70.3589V24.6774V38.3871C70.3589 39.1936 71 39.8387 71.8013 39.8387C72.6027 39.8387 73.2438 39.1936 73.2438 38.3871V27.5807V24.5162C73.404 23.7097 72.763 23.2258 71.9616 23.2258Z" fill="#979797"/>
<path fill-rule="evenodd" clip-rule="evenodd" d="M18.5915 27.2581H16.9888V37.742V38.3871C16.9888 39.1936 17.6299 39.8387 18.4312 39.8387C19.2326 39.8387 19.8736 39.1936 19.8736 38.3871V28.5484C20.0339 27.9033 19.3928 27.2581 18.5915 27.2581Z" fill="#979797"/>
<path fill-rule="evenodd" clip-rule="evenodd" d="M18.4313 23.0645C17.4697 23.0645 16.8286 23.871 16.8286 24.6774C16.8286 25.6452 17.63 26.2903 18.4313 26.2903C19.3929 26.2903 20.034 25.4839 20.034 24.6774C20.034 23.7097 19.2327 23.0645 18.4313 23.0645Z" fill="#979797"/>
<path fill-rule="evenodd" clip-rule="evenodd" d="M49.5236 25.6451C49.5236 24.8387 48.8825 24.1935 48.0811 24.1935H46.4784V27.258H45.9976H44.5552V29.8387H46.4784V36.129C46.4784 38.8709 48.0811 39.8387 50.1647 39.8387C50.966 39.8387 51.6071 39.6774 52.2482 39.5161C52.729 39.3548 52.729 39.0322 52.729 38.5484C52.729 37.9032 52.4084 37.258 51.7674 37.258C51.6071 37.258 51.4468 37.258 50.966 37.258C50.0044 37.258 49.3633 36.7742 49.3633 35.6451V29.6774H51.6071C52.4085 29.6774 52.8893 29.1935 52.8893 28.3871V27.0967H49.203V25.6451H49.5236Z" fill="#979797"/>
<path fill-rule="evenodd" clip-rule="evenodd" d="M13.4628 23.0645H11.86C11.0587 23.0645 10.4176 23.871 10.4176 24.6774V27.2581H9.93679H7.05192C3.36569 27.2581 0 30 0 33.7097C0 37.0968 2.7246 39.8387 6.73138 39.8387H13.4628V23.0645ZM10.4176 37.0968H6.89165C4.64786 37.0968 2.88488 35.4839 2.88488 33.5484C2.88488 31.7742 4.64786 29.8387 6.89165 29.8387H10.0971H10.2573V37.0968H10.4176Z" fill="#979797"/>
<path fill-rule="evenodd" clip-rule="evenodd" d="M35.2594 27.2581H33.4964V28.871C31.7334 27.4194 30.4513 27.0968 28.6883 27.0968C25.4829 27.0968 22.4377 29.5161 22.4377 33.3871C22.4377 37.4194 25.4829 40 28.6883 40C30.4513 40 32.6951 39.1935 33.4964 38.0645V38.2258C33.4964 40.9677 31.8937 42.4193 29.1691 42.4193C28.2075 42.4193 27.5664 42.2581 26.6048 42.0968H26.4445L24.361 41.2903C23.7199 40.9677 23.0788 41.2903 22.7583 41.9355L22.1172 43.2258L24.0404 43.871C24.5213 44.0323 24.8418 44.1935 25.3226 44.3548H25.4829C26.6048 44.6774 27.8869 44.8387 29.1691 44.8387C31.7334 44.8387 33.6567 44.1935 34.9389 43.0645C36.0608 41.9355 36.7018 40.3226 36.7018 38.0645V29.0323C36.7018 28.0645 36.0608 27.2581 35.2594 27.2581ZM33.4964 31.7742V35.1613C32.5348 36.4516 30.7718 37.4194 29.3294 37.2581C26.765 37.0968 25.4829 35.6452 25.4829 33.5484C25.4829 31.2903 27.2459 29.8387 29.4896 29.8387C30.7718 29.6774 32.054 30.1613 33.4964 31.7742Z" fill="#979797"/>
<path fill-rule="evenodd" clip-rule="evenodd" d="M61.0634 27.0968C60.1018 27.0968 59.3005 27.2581 58.6594 27.2581L57.858 27.4194C57.6977 27.4194 57.5375 27.5806 57.2169 27.5806L55.454 28.0645L55.9348 29.3548C56.095 30 56.7361 30.3226 57.3772 30.1613L59.3005 29.5161C59.7813 29.5161 60.1018 29.3548 60.5826 29.3548C62.6661 29.3548 63.788 30.4839 63.788 32.0968V32.2581C62.1853 31.9355 61.384 31.9355 60.2621 31.9355C57.0567 31.9355 54.9731 33.2258 54.9731 35.9677C54.9731 38.5484 57.0567 39.8387 59.621 39.8387C61.0634 39.8387 62.1853 39.6774 63.9483 38.871V39.0323C64.1086 39.5161 64.5894 39.8387 65.3908 39.8387C66.1921 39.8387 66.8332 39.1935 66.8332 38.3871V32.0968C66.8332 30.4839 66.3524 29.0323 65.3908 28.2258C64.4291 27.5806 62.9867 27.0968 61.0634 27.0968ZM63.9483 36.7742C62.5059 37.5806 61.5443 37.9032 60.4224 37.9032C58.9799 37.9032 57.858 37.2581 57.858 35.9677C57.858 34.6774 58.9799 33.871 60.9032 33.871C61.7045 33.871 62.3456 34.0323 63.788 34.1935V36.7742H63.9483Z" fill="#979797"/>
<path fill-rule="evenodd" clip-rule="evenodd" d="M40.8693 27.2581H39.2666V37.742V38.3871C39.2666 39.1936 39.9077 39.8387 40.709 39.8387C41.5104 39.8387 42.1515 39.1936 42.1515 38.3871V28.5484C42.3117 27.9033 41.6707 27.2581 40.8693 27.2581Z" fill="#979797"/>
<path fill-rule="evenodd" clip-rule="evenodd" d="M40.5485 23.0645C39.5869 23.0645 38.9458 23.871 38.9458 24.6774C38.9458 25.6452 39.7472 26.2903 40.5485 26.2903C41.5101 26.2903 42.1512 25.4839 42.1512 24.6774C42.3115 23.7097 41.5101 23.0645 40.5485 23.0645Z" fill="#979797"/>
<path fill-rule="evenodd" clip-rule="evenodd" d="M40.8693 27.2581H39.2666V37.742V38.3871C39.2666 39.1936 39.9077 39.8387 40.709 39.8387C41.5104 39.8387 42.1515 39.1936 42.1515 38.3871V28.5484C42.3117 27.9033 41.6707 27.2581 40.8693 27.2581Z" fill="#979797"/>
<path fill-rule="evenodd" clip-rule="evenodd" d="M40.5485 23.0645C39.5869 23.0645 38.9458 23.871 38.9458 24.6774C38.9458 25.6452 39.7472 26.2903 40.5485 26.2903C41.5101 26.2903 42.1512 25.4839 42.1512 24.6774C42.3115 23.7097 41.5101 23.0645 40.5485 23.0645Z" fill="#979797"/>
</svg>
