<svg width="28" height="28" viewBox="0 0 28 28" fill="none" xmlns="http://www.w3.org/2000/svg">
<rect width="28" height="28" rx="14" fill="#1C1C1B"/>
<path fill-rule="evenodd" clip-rule="evenodd" d="M15.671 16.2273V15.1136C15.9216 14.9894 16.6382 14.1363 16.7134 13.4698C16.9105 13.4547 17.2201 13.2738 17.3115 12.5593C17.3605 12.1757 17.1656 11.9602 17.0475 11.8923C17.0475 11.8923 17.3415 11.3337 17.3415 10.6594C17.3415 9.3074 16.8108 8.15362 15.671 8.15362C15.671 8.15362 15.2751 7.31836 14.0005 7.31836C11.6383 7.31836 10.6594 8.83353 10.6594 10.6594C10.6594 11.2742 10.9534 11.8923 10.9534 11.8923C10.8354 11.9602 10.6405 12.1762 10.6895 12.5593C10.7808 13.2738 11.0904 13.4547 11.2875 13.4698C11.3627 14.1363 12.0794 14.9894 12.3299 15.1136V16.2273C11.7731 17.8978 7.31836 16.7841 7.31836 20.682H20.6825C20.6825 16.7841 16.2278 17.8978 15.671 16.2273Z" fill="white"/>
</svg>
