<svg width="20" height="16" viewBox="0 0 20 16" fill="none" xmlns="http://www.w3.org/2000/svg">
<path d="M18.7561 12.2297C11.9486 0.828939 12.272 1.37048 12.2597 1.34991C11.8049 0.504347 10.9612 0 10 0C9.03878 0 8.19506 0.504347 7.74034 1.34991C7.7283 1.37009 8.06437 0.807268 1.2439 12.2297C0.336135 13.9384 1.57389 15.9998 3.51018 15.9998H16.4899C18.4247 15.9999 19.6646 13.9397 18.7561 12.2297ZM16.4899 14.9341H3.51014C2.38326 14.9341 1.65915 13.7388 2.17927 12.7407C2.19117 12.7208 1.85717 13.2801 8.67493 1.86225C9.23999 0.798529 10.7602 0.799026 11.3251 1.86225C18.1326 13.263 17.8084 12.72 17.8207 12.7407C18.3413 13.7396 17.6159 14.9341 16.4899 14.9341Z" fill="#FF0000"/>
<path d="M9.4668 4.27734H10.5325V11.2047H9.4668V4.27734Z" fill="#FF0000"/>
<path d="M9.4668 12.2695H10.5325V13.3353H9.4668V12.2695Z" fill="#FF0000"/>
</svg>
