<svg width="20" height="20" viewBox="0 0 20 20" fill="none" xmlns="http://www.w3.org/2000/svg">
<path fill-rule="evenodd" clip-rule="evenodd" d="M13.2725 7.81996C13.2725 10.8324 10.8305 13.2745 7.818 13.2745C4.80555 13.2745 2.36346 10.8324 2.36346 7.81996C2.36346 4.8075 4.80555 2.36541 7.818 2.36541C10.8305 2.36541 13.2725 4.8075 13.2725 7.81996ZM12.106 14.1396C10.8837 14.9706 9.40755 15.4563 7.818 15.4563C3.60056 15.4563 0.181641 12.0374 0.181641 7.81996C0.181641 3.60251 3.60056 0.183594 7.818 0.183594C12.0355 0.183594 15.4544 3.60251 15.4544 7.81996C15.4544 9.65801 14.805 11.3444 13.7231 12.6622L19.4642 17.9248C19.9083 18.332 19.9383 19.0221 19.5313 19.4662C19.1242 19.9103 18.4341 19.9403 17.99 19.5333L12.106 14.1396Z" fill="#1C1C1B"/>
</svg>
