<svg width="24" height="24" viewBox="0 0 24 24" fill="none" xmlns="http://www.w3.org/2000/svg">
<path fill-rule="evenodd" clip-rule="evenodd" d="M5.7623 14.2247C5.97454 14.5246 6.20787 14.8085 6.46012 15.0742L11.1572 20.7924C11.5934 21.3235 12.4061 21.3237 12.8427 20.793L17.5962 15.0135C17.8057 14.788 18.0016 14.5498 18.1829 14.3002L18.2803 14.1816H18.2672C19.13 12.9447 19.636 11.4405 19.636 9.818C19.636 5.60056 16.2171 2.18164 11.9996 2.18164C7.7822 2.18164 4.36328 5.60056 4.36328 9.818C4.36328 11.4405 4.86926 12.9447 5.73203 14.1816H5.72692L5.7623 14.2247ZM15.2724 9.81801C15.2724 11.6255 13.8071 13.0907 11.9996 13.0907C10.1922 13.0907 8.72692 11.6255 8.72692 9.81801C8.72692 8.01053 10.1922 6.54528 11.9996 6.54528C13.8071 6.54528 15.2724 8.01053 15.2724 9.81801Z" fill="#1C1C1B"/>
</svg>
