<svg width="24" height="24" viewBox="0 0 24 24" fill="none" xmlns="http://www.w3.org/2000/svg">
<path d="M3.78801 2.2207C3.91448 2.2207 4.04477 2.2207 4.17124 2.2207C4.21339 2.23603 4.25171 2.25519 4.29387 2.27051C7.26385 3.38547 10.2338 4.49661 13.2038 5.61157C13.6445 5.77632 13.748 5.91809 13.748 6.39319C13.748 11.4393 13.748 16.4853 13.748 21.5314C13.748 21.8149 13.748 21.8149 13.4644 21.8149C9.93875 21.8149 6.41692 21.8149 2.89127 21.8188C2.57319 21.8188 2.35093 21.7076 2.2168 21.4203C2.2168 21.2938 2.2168 21.1636 2.2168 21.0371C2.35093 20.7498 2.57319 20.6157 2.89127 20.6387C2.95642 20.6425 3.01773 20.6387 3.08288 20.6387C3.38563 20.6348 3.38563 20.6348 3.38946 20.3321C3.38946 14.5351 3.39329 8.73423 3.38563 2.93719C3.38563 2.60385 3.4891 2.3663 3.78801 2.2207ZM7.98047 18.9375C7.98047 18.4356 7.97664 17.9298 7.98431 17.4279C7.98431 17.2823 7.93449 17.221 7.78503 17.2248C7.31367 17.2325 6.8423 17.2248 6.37094 17.2286C5.94556 17.2325 5.72329 17.4547 5.71946 17.88C5.71563 18.7267 5.71946 19.5735 5.71563 20.4203C5.71563 20.5888 5.77311 20.6425 5.93789 20.6387C6.54339 20.631 7.14888 20.631 7.75437 20.6387C7.93066 20.6425 7.98814 20.5812 7.98814 20.4049C7.97664 19.9183 7.98047 19.4279 7.98047 18.9375ZM9.15697 18.9107C9.15697 19.4126 9.1608 19.9183 9.15314 20.4203C9.15314 20.5697 9.19529 20.6387 9.36008 20.6387C9.97707 20.631 10.5979 20.631 11.2149 20.6387C11.3758 20.6387 11.4257 20.5812 11.4257 20.4241C11.4218 19.5773 11.4257 18.7306 11.4218 17.8838C11.418 17.447 11.1957 17.2286 10.7588 17.2248C10.299 17.221 9.84294 17.2286 9.38307 17.221C9.19912 17.2171 9.15314 17.2899 9.15697 17.4585C9.16463 17.9451 9.15697 18.4279 9.15697 18.9107ZM6.77332 16.0485C7.01475 16.0485 7.1987 16.0562 7.38265 16.0485C7.6739 16.0332 7.88084 15.8838 7.94598 15.6462C8.04945 15.2707 7.80036 14.9527 7.37115 14.9374C7.02242 14.9259 6.67368 14.9336 6.32112 14.9374C6.20232 14.9374 6.07969 14.9604 5.97622 15.0332C5.78461 15.1635 5.7003 15.3435 5.73479 15.5734C5.76928 15.811 5.90724 15.9604 6.14484 16.0217C6.37094 16.0754 6.60087 16.037 6.77332 16.0485ZM10.3066 14.9297C10.0652 14.9451 9.82378 14.9029 9.58235 14.9642C9.33325 15.0255 9.16463 15.2401 9.16463 15.493C9.16463 15.7458 9.32942 15.9796 9.58235 16.0141C10.0422 16.0792 10.5097 16.0754 10.9734 16.0179C11.2379 15.9834 11.4103 15.7458 11.4103 15.4891C11.4103 15.2286 11.2379 15.0179 10.9734 14.9604C10.755 14.9068 10.5289 14.9451 10.3066 14.9297ZM6.85763 9.16335C7.02242 9.16335 7.19103 9.16719 7.35582 9.16335C7.71988 9.15186 7.96515 8.92963 7.96898 8.61545C7.97281 8.30127 7.73138 8.06372 7.37115 8.05222C7.02242 8.04073 6.66985 8.04073 6.32112 8.05222C5.96855 8.06372 5.73095 8.28978 5.72712 8.60013C5.72329 8.91431 5.96089 9.14803 6.32495 9.16335C6.50123 9.17102 6.68135 9.16335 6.85763 9.16335ZM10.2836 9.16335C10.4638 9.16335 10.64 9.17102 10.8202 9.16335C11.1689 9.14803 11.4103 8.91814 11.4142 8.61162C11.418 8.30127 11.1842 8.06755 10.8317 8.05222C10.4753 8.0369 10.1189 8.04073 9.76246 8.05222C9.4099 8.06372 9.17613 8.29361 9.1723 8.60396C9.16847 8.92197 9.4099 9.14803 9.77396 9.16335C9.94258 9.17102 10.115 9.16335 10.2836 9.16335ZM6.84997 11.4584C7.03008 11.4584 7.20636 11.4661 7.38648 11.4584C7.6739 11.4431 7.877 11.2975 7.94215 11.0714C8.05712 10.6883 7.80036 10.3626 7.36349 10.3473C7.01858 10.3358 6.67368 10.3435 6.33261 10.3473C6.19849 10.3511 6.06819 10.3741 5.95322 10.4584C5.76928 10.5925 5.6888 10.8147 5.74628 11.0331C5.81143 11.2822 6.00688 11.4393 6.29429 11.4584C6.48207 11.4661 6.66602 11.4584 6.84997 11.4584ZM10.2913 11.4584C10.4714 11.4584 10.6477 11.4661 10.8278 11.4584C11.1267 11.4431 11.326 11.2937 11.3873 11.0523C11.487 10.673 11.2379 10.3588 10.8048 10.3473C10.4599 10.3358 10.115 10.3435 9.77396 10.3473C9.63983 10.3511 9.50954 10.3741 9.39457 10.4584C9.21062 10.5925 9.13014 10.8147 9.18763 11.0331C9.25278 11.2822 9.44439 11.4393 9.73564 11.4584C9.92342 11.4661 10.1074 11.4584 10.2913 11.4584ZM6.80781 13.7535C7.01858 13.7535 7.1987 13.7611 7.37498 13.7535C7.6624 13.742 7.86934 13.5964 7.93832 13.3742C8.04946 13.0217 7.82335 12.6768 7.42097 12.65C7.03391 12.6232 6.64303 12.6423 6.25597 12.65C6.15633 12.65 6.05286 12.6807 5.96855 12.742C5.78077 12.8761 5.7003 13.06 5.73479 13.2899C5.77311 13.5198 5.90724 13.6653 6.13334 13.7267C6.37094 13.7841 6.60854 13.7381 6.80781 13.7535ZM10.2875 13.7496C10.2875 13.7496 10.2875 13.7535 10.2875 13.7496C10.3756 13.7535 10.4676 13.7535 10.5557 13.7535C10.6439 13.7535 10.7359 13.7573 10.824 13.7535C11.1191 13.7381 11.326 13.5887 11.3912 13.355C11.4908 12.9795 11.2379 12.6577 10.8125 12.6423C10.4676 12.6308 10.1227 12.6385 9.78162 12.6423C9.6475 12.6462 9.5172 12.6692 9.40223 12.7535C9.21445 12.8876 9.13781 13.1136 9.19913 13.3473C9.25661 13.5772 9.44056 13.7305 9.72031 13.7496C9.90426 13.7611 10.0959 13.7496 10.2875 13.7496Z" fill="black"/>
<path d="M14.8625 15.1862C14.8625 13.1479 14.8625 11.1095 14.8625 9.07117C14.8625 8.96389 14.8701 8.85277 14.8625 8.74549C14.851 8.58074 14.9276 8.56158 15.0579 8.60756C15.1767 8.64971 15.2993 8.68419 15.422 8.72634C16.9664 9.24359 18.5146 9.76467 20.059 10.2819C20.5342 10.4428 20.63 10.5731 20.63 11.0712C20.63 14.167 20.63 17.2629 20.63 20.3587C20.63 20.6308 20.63 20.6308 20.9097 20.6346C20.994 20.6346 21.0745 20.6346 21.1588 20.6346C21.5612 20.6384 21.8141 20.8606 21.8141 21.217C21.8141 21.5848 21.565 21.807 21.1473 21.8109C20.6453 21.8109 20.1394 21.8109 19.6374 21.8109C18.1352 21.8109 16.6291 21.8109 15.1269 21.8109C14.8663 21.8109 14.8625 21.8109 14.8625 21.5465C14.8663 19.4277 14.8663 17.305 14.8625 15.1862C14.8663 15.1862 14.8625 15.1862 14.8625 15.1862ZM16.0428 19.1365C16.0428 19.5694 16.0466 20.0024 16.039 20.4353C16.0351 20.5809 16.0888 20.6422 16.2382 20.6384C16.4682 20.6308 16.6981 20.6269 16.928 20.6384C17.1043 20.6461 17.1618 20.5809 17.1618 20.4047C17.1541 19.7878 17.1618 19.1671 17.158 18.5503C17.158 18.397 17.204 18.3319 17.3649 18.3395C17.614 18.351 17.8631 18.351 18.1122 18.3395C18.2846 18.3319 18.346 18.3893 18.3421 18.5656C18.3345 19.171 18.3383 19.7763 18.3383 20.3817C18.3383 20.6308 18.3421 20.6346 18.5989 20.6346C18.802 20.6346 19.0051 20.6346 19.212 20.6346C19.4496 20.6346 19.4573 20.6269 19.4573 20.3855C19.4573 19.5771 19.4573 18.7687 19.4573 17.9564C19.4573 17.4276 19.258 17.2246 18.7292 17.2246C18.0662 17.2246 17.4032 17.2246 16.7403 17.2246C16.2574 17.2246 16.0428 17.443 16.0428 17.9296C16.0428 18.3319 16.0428 18.7342 16.0428 19.1365ZM17.729 13.7532C18.1045 13.7532 18.4801 13.7609 18.8556 13.7494C19.2082 13.7379 19.442 13.508 19.4458 13.1977C19.4496 12.895 19.2274 12.6498 18.8863 12.6421C18.1314 12.6268 17.3726 12.6306 16.6138 12.6421C16.334 12.6459 16.1424 12.8069 16.0811 13.0291C15.97 13.4122 16.2267 13.7379 16.6636 13.7494C17.0162 13.7609 17.3726 13.7532 17.729 13.7532ZM17.7328 16.0483C18.1084 16.0483 18.4839 16.056 18.8595 16.0445C19.212 16.033 19.4458 15.7954 19.4458 15.4889C19.442 15.19 19.212 14.9448 18.871 14.9372C18.1199 14.9257 17.3687 14.9257 16.6176 14.9372C16.3417 14.941 16.1463 15.1019 16.0811 15.3242C15.97 15.7073 16.2267 16.033 16.6636 16.0445C17.0162 16.056 17.3764 16.0483 17.7328 16.0483Z" fill="black"/>
</svg>
